<svg id="Layer_1" data-name="Layer 1" xmlns="http://www.w3.org/2000/svg" xmlns:xlink="http://www.w3.org/1999/xlink" viewBox="0 0 260.03 271.41"><defs><style>.cls-1{fill:url(#linear-gradient);}.cls-2{fill:none;stroke:#076596;stroke-miterlimit:10;stroke-width:4px;}</style><linearGradient id="linear-gradient" x1="12.53" y1="134.38" x2="248.53" y2="134.38" gradientUnits="userSpaceOnUse"><stop offset="0" stop-color="#38e0c4"/><stop offset="1" stop-color="#619df2"/></linearGradient></defs><title>logo</title><circle class="cls-1" cx="130.53" cy="134.38" r="118"/><polygon class="cls-2" points="109.25 170.83 171.01 98.14 60.61 88.78 109.25 170.83"/><polygon class="cls-2" points="133.04 2.1 53.93 25.84 3.88 91.54 2.01 174.11 49.03 242.01 126.99 269.31 206.1 245.57 256.14 179.87 258.01 97.3 210.99 29.4 133.04 2.1"/><line class="cls-2" x1="121.43" y1="21.58" x2="60.61" y2="88.78"/><line class="cls-2" x1="171.01" y1="98.14" x2="121.43" y2="21.58"/><line class="cls-2" x1="53.93" y1="25.84" x2="121.53" y2="21.14"/><line class="cls-2" x1="210.99" y1="29.4" x2="121.53" y2="21.14"/><line class="cls-2" x1="133.04" y1="2.1" x2="121.53" y2="21.14"/><line class="cls-2" x1="53.93" y1="25.84" x2="60.61" y2="88.78"/><line class="cls-2" x1="3.88" y1="91.54" x2="60.61" y2="88.78"/><line class="cls-2" x1="210.99" y1="29.4" x2="171.01" y2="98.14"/><line class="cls-2" x1="257.98" y1="98.79" x2="240.07" y2="112.43"/><line class="cls-2" x1="210.99" y1="29.4" x2="240.07" y2="112.43"/><line class="cls-2" x1="171.01" y1="98.14" x2="240.07" y2="112.43"/><line class="cls-2" x1="256.14" y1="179.87" x2="240.07" y2="112.43"/><line class="cls-2" x1="171.01" y1="98.14" x2="191" y2="183.31"/><line class="cls-2" x1="256.14" y1="179.87" x2="191" y2="183.31"/><line class="cls-2" x1="240.07" y1="112.43" x2="191" y2="183.31"/><line class="cls-2" x1="109.25" y1="170.83" x2="191" y2="183.31"/><line class="cls-2" x1="60.61" y1="88.78" x2="27.19" y2="174.21"/><line class="cls-2" x1="109.25" y1="170.83" x2="27.19" y2="174.21"/><line class="cls-2" x1="3.88" y1="91.54" x2="27.19" y2="174.21"/><line class="cls-2" x1="2.01" y1="174.11" x2="27.19" y2="174.21"/><line class="cls-2" x1="49.04" y1="242.01" x2="27.19" y2="174.21"/><line class="cls-2" x1="206.1" y1="245.57" x2="191" y2="183.31"/><line class="cls-2" x1="126.99" y1="269.31" x2="113.63" y2="249.4"/><line class="cls-2" x1="49.04" y1="242.01" x2="113.63" y2="249.4"/><line class="cls-2" x1="206.1" y1="245.57" x2="113.63" y2="249.4"/><line class="cls-2" x1="28.38" y1="174.16" x2="113.63" y2="249.4"/><line class="cls-2" x1="191" y1="183.31" x2="113.63" y2="249.4"/><line class="cls-2" x1="109.25" y1="170.83" x2="113.63" y2="249.4"/></svg>