<?xml version="1.0" encoding="utf-8"?>
<!DOCTYPE svg PUBLIC "-//W3C//DTD SVG 1.1//EN" "http://www.w3.org/Graphics/SVG/1.1/DTD/svg11.dtd">
<svg xmlns="http://www.w3.org/2000/svg" xmlns:xlink="http://www.w3.org/1999/xlink" width="512px" version="1.1" height="512px" viewBox="0 0 64 64" enable-background="new 0 0 64 64">
  <g>
    <g>
      <path fill="#91DC5A" d="m31.866,64c-7.268,0-13.95-2.379-19.955-7.114-3.648-2.883-6.511-6.453-8.511-10.616-1.571-2.91-2.638-6.332-3.122-10.069-0.793-6.142 0.107-12.08 2.679-17.645 0.085-0.19 0.46-0.909 0.76-1.488 1.221-2.475 2.877-4.792 5.048-7.066 4.989-5.23 10.995-8.44 17.857-9.535 9.921-1.582 18.723,0.87 26.178,7.293 0.284,0.239 1.181,1.001 1.228,2.283 0.031,0.858-0.317,1.647-1.034,2.354-1.887,1.85-3.745,3.711-5.604,5.574l-1.753,1.755c-1.432,1.532-3.141,1.209-4.217,0.225-5.369-4.919-13.955-4.704-19.547,0.497-1.93,1.794-3.329,3.934-4.283,6.541-1.069,3.192-1.086,6.495-0.025,10.038 0.856,2.16 1.861,3.891 3.098,5.255 3.646,4.029 8.047,5.707 13.447,5.149 2.356-0.243 4.585-1.014 6.808-2.356 1.764-1.364 3.009-2.836 3.804-4.492 0.024-0.054 0.05-0.107 0.073-0.159-2.804,0.011-5.592,0.007-8.382,0.007l-3.463-.003c-2.344,0-3.435-1.103-3.435-3.466l.002-2.698c0.003-2.324 0.007-4.648-0.013-6.969-0.005-0.419-0.014-1.537 0.866-2.425 0.582-0.583 1.373-0.881 2.353-0.881 0.005,0 0.009,0 0.013,0 8.786,0.027 17.571,0.021 26.354,0.007 2.667,0 3.168,2.062 3.26,2.692 1.268,8.93-0.082,16.579-4.124,23.394-1.484,2.498-3.146,4.512-5.073,6.156-3.307,3.146-7.396,5.382-12.055,6.559-3.171,0.804-6.25,1.203-9.232,1.203zm-24.293-43.842c-0.101,0.19-0.177,0.346-0.213,0.425-2.188,4.729-2.949,9.772-2.276,14.996 0.415,3.192 1.276,5.971 2.636,8.496 1.727,3.589 4.131,6.587 7.196,9.007 7.321,5.775 15.493,7.423 24.993,5.015 3.844-0.969 7.208-2.808 10.005-5.461 1.611-1.382 2.938-2.998 4.145-5.028 3.236-5.455 4.444-11.608 3.678-18.764-7.828,0.009-15.602,0.015-23.376-0.005 0.01,1.828 0.006,3.63 0.004,5.431l-.004,1.312 2.058,.002c3.603,0.003 7.204,0.01 10.807-0.023 1.24-0.002 2.068,0.379 2.649,1.153 0.868,1.155 0.481,2.44 0.355,2.862-0.281,0.937-0.624,2.025-1.138,3.098-1.148,2.396-2.889,4.469-5.332,6.331-0.066,0.05-0.138,0.097-0.208,0.142-2.89,1.768-5.817,2.782-8.941,3.107-6.955,0.72-12.849-1.536-17.545-6.717-1.642-1.817-2.937-4.019-4.079-6.928-1.402-4.664-1.37-9.049 0.033-13.224 1.222-3.355 3.084-6.191 5.552-8.488 6.964-6.471 17.485-7.078 24.721-1.681l.665-.667c1.422-1.424 2.842-2.849 4.271-4.261-6.096-4.667-12.93-6.305-20.843-5.038-5.789,0.925-10.872,3.649-15.113,8.096-1.6,1.673-2.855,3.355-3.814,5.106-0.028,0.062-0.059,0.121-0.089,0.181-0.048,0.089-0.169,0.316-0.311,0.584-0.085,0.176-0.165,0.349-0.246,0.525-0.069,0.149-0.15,0.288-0.24,0.416z"/>
    </g>
  </g>
</svg>
